<?xml version="1.0" standalone="no"?>
<!DOCTYPE svg PUBLIC "-//W3C//DTD SVG 20010904//EN"
 "http://www.w3.org/TR/2001/REC-SVG-20010904/DTD/svg10.dtd">
<svg version="1.0" xmlns="http://www.w3.org/2000/svg"
 width="5159.000000pt" height="3622.000000pt" viewBox="0 0 5159.000000 3622.000000"
 preserveAspectRatio="xMidYMid meet">

<g transform="translate(0.000000,3622.000000) scale(0.100000,-0.100000)"
fill="#000000" stroke="none">
<path d="M0 18110 l0 -18110 25795 0 25795 0 0 18110 0 18110 -25795 0 -25795
0 0 -18110z m25450 12985 c1649 -218 3170 -606 4057 -1035 310 -150 461 -243
748 -457 470 -352 832 -719 1079 -1090 149 -226 222 -373 363 -733 46 -118
111 -282 143 -365 192 -491 280 -1055 267 -1705 -7 -308 -20 -464 -77 -914
-145 -1142 -250 -2907 -195 -3281 35 -239 27 -730 -15 -931 -25 -120 -38 -271
-55 -644 -15 -325 -12 -309 -88 -566 -20 -67 -41 -148 -47 -180 -6 -32 -24
-129 -40 -214 -44 -236 -50 -300 -48 -500 1 -164 -2 -201 -26 -324 -108 -559
-389 -1473 -606 -1971 -73 -168 -187 -451 -315 -781 -64 -165 -143 -368 -176
-452 -54 -139 -73 -203 -49 -162 5 9 79 189 165 400 187 458 309 750 415 995
100 229 144 347 235 620 171 514 303 997 366 1343 18 97 22 160 23 362 1 190
6 270 21 358 10 61 23 112 27 112 12 0 10 -769 -2 -1000 -23 -430 -60 -775
-110 -1030 -17 -87 -65 -258 -119 -425 -49 -154 -112 -354 -140 -444 -112
-358 -702 -1563 -1012 -2066 -92 -149 -134 -201 -663 -816 -539 -626 -581
-673 -780 -883 -143 -151 -168 -173 -481 -406 -349 -261 -503 -363 -940 -625
-775 -464 -1338 -745 -1493 -745 -151 0 -769 217 -1867 653 -910 362 -1255
505 -1296 538 -74 58 -158 167 -333 432 -175 266 -298 425 -610 787 -229 267
-549 633 -656 751 -52 58 -135 151 -183 207 l-89 101 -23 128 c-13 71 -29 184
-35 253 -25 279 -173 1060 -325 1720 -90 388 -160 777 -299 1665 -121 769
-345 2296 -371 2520 -23 204 -312 3237 -337 3545 -19 234 -16 936 5 1180 22
245 50 466 87 687 230 1347 840 2612 1731 3589 191 209 672 651 796 731 15 10
84 59 153 109 408 296 812 520 1245 689 680 266 1332 355 1975 270z m-5720
-1855 c580 -27 1065 -50 1078 -50 21 0 18 -7 -36 -72 -320 -394 -684 -985
-903 -1470 -92 -204 -194 -451 -250 -606 -12 -35 -28 -66 -35 -69 -27 -10
-175 -506 -248 -834 -76 -341 -125 -660 -163 -1059 -22 -236 -25 -1082 -5
-1310 23 -253 251 -2657 293 -3092 l40 -418 -47 -127 c-61 -165 -99 -293 -125
-418 -18 -86 -20 -120 -14 -240 7 -138 6 -142 -28 -276 -50 -192 -57 -258 -57
-540 l0 -250 -60 -222 c-86 -313 -120 -489 -120 -612 0 -55 5 -116 10 -136 8
-27 4 -82 -15 -230 -34 -257 -44 -476 -23 -510 9 -13 19 -47 22 -76 4 -28 15
-77 26 -109 11 -31 20 -60 20 -64 0 -7 -80 -34 -85 -28 -1 2 -14 381 -29 843
-14 462 -105 3340 -201 6395 -96 3055 -175 5572 -175 5593 0 36 1 37 38 37 21
0 512 -22 1092 -50z m13383 -629 c790 -37 1439 -70 1442 -73 3 -2 -310 -2558
-695 -5679 -880 -7137 -889 -7211 -894 -7217 -3 -2 -116 37 -253 86 -252 91
-631 224 -959 335 l-181 61 28 86 c191 596 216 701 263 1115 40 349 47 507 46
1155 0 706 -6 626 73 897 55 187 65 257 77 538 14 329 28 514 45 590 31 135
40 273 40 600 0 273 -3 351 -19 455 -17 111 -18 159 -12 425 18 828 99 1900
206 2760 72 572 81 698 81 1085 0 721 -98 1237 -351 1855 -27 66 -84 207 -125
314 -85 216 -180 411 -278 574 l-66 107 47 0 c26 -1 694 -31 1485 -69z
m-14923 -790 c0 -24 341 -10974 350 -11245 6 -170 9 -310 8 -311 -2 -2 -118
-40 -258 -86 -303 -98 -1968 -665 -2270 -773 -237 -85 -689 -301 -833 -398
-84 -57 -264 -211 -506 -433 l-65 -60 -8 30 c-4 17 -136 1137 -293 2490 -157
1353 -483 4165 -725 6249 -242 2084 -438 3791 -435 3794 5 5 4970 749 5013
751 12 1 22 -3 22 -8z m19809 -2136 c1727 -404 3154 -738 3169 -742 l29 -8
-1397 -7685 c-768 -4227 -1513 -8327 -1656 -9112 -142 -784 -261 -1424 -264
-1422 -2 3 -10 83 -17 179 -23 324 -88 766 -208 1425 -289 1579 -690 3301
-887 3810 -35 89 -71 149 -236 394 -600 892 -1065 1489 -1364 1753 -51 45
-163 132 -250 193 -171 122 -276 210 -515 432 -87 81 -185 168 -218 193 -77
58 -323 183 -542 275 -166 70 -172 74 -167 99 2 14 61 478 130 1031 68 553
377 3009 684 5459 308 2449 560 4455 560 4457 0 6 -135 38 3149 -731z m-24965
-1622 c4 -21 128 -1014 276 -2208 149 -1193 423 -3396 610 -4895 187 -1499
340 -2736 340 -2749 0 -17 -32 -57 -113 -140 -62 -64 -133 -145 -156 -180 -72
-106 -344 -739 -535 -1244 -675 -1784 -980 -2894 -1180 -4287 -78 -541 -90
-717 -90 -1323 0 -280 -2 -505 -3 -500 -1 4 -686 3144 -1522 6978 -836 3834
-1636 7501 -1778 8149 -212 972 -255 1180 -243 1185 19 6 4372 1249 4382 1250
3 1 9 -16 12 -36z m6787 -4278 c51 -362 51 -442 -6 -605 -66 -191 -77 -255
-80 -460 -3 -216 -19 -310 -110 -635 -112 -399 -121 -458 -95 -592 13 -66 12
-95 -9 -322 -33 -350 -28 -446 32 -646 57 -187 266 -807 386 -1144 50 -140 89
-256 87 -258 -11 -12 -542 1117 -553 1177 -6 36 -37 103 -88 190 -24 42 -51
103 -61 136 -26 87 -22 273 11 527 26 200 27 270 10 385 -13 80 30 293 133
652 l47 165 1 300 c1 317 0 300 58 520 28 104 34 175 27 360 -4 118 3 152 92
414 53 160 63 181 69 155 4 -16 26 -159 49 -319z m-310 -3667 c37 -84 64 -156
60 -159 -3 -4 -521 -192 -1151 -419 -2303 -830 -2607 -940 -2695 -985 -146
-73 -360 -243 -666 -531 -505 -473 -530 -499 -565 -561 -204 -362 -623 -1781
-1139 -3853 -250 -1005 -396 -1644 -415 -1815 -14 -125 -14 -658 0 -910 20
-367 54 -814 86 -1135 7 -80 14 -148 14 -152 0 -5 -130 -8 -290 -8 l-289 0 -3
798 c-4 1053 4 1266 63 1737 130 1043 474 2398 964 3800 279 798 642 1682 744
1810 59 74 529 537 738 727 331 301 349 314 627 454 298 151 405 193 1221 474
407 141 2611 879 2625 880 3 0 35 -69 71 -152z m12105 -322 c1066 -358 1869
-662 2227 -843 148 -75 213 -125 422 -324 194 -184 288 -262 493 -408 92 -65
206 -156 255 -201 282 -264 766 -897 1297 -1695 134 -202 173 -268 199 -340
266 -736 873 -3563 1031 -4805 10 -85 40 -454 64 -820 25 -366 48 -684 51
-707 l5 -43 -1061 0 -1061 0 6 33 c56 303 57 471 6 1196 -17 238 -18 300 -9
475 23 408 -5 4855 -31 4971 -6 24 -8 -674 -5 -1725 3 -971 1 -2120 -4 -2555
-8 -707 -11 -807 -30 -955 -25 -199 -72 -720 -101 -1110 -12 -157 -23 -295
-26 -307 l-4 -23 -1125 0 -1125 0 0 23 c0 12 7 245 15 517 16 564 29 1077 47
1860 16 728 17 2810 1 3070 -22 362 -127 1535 -134 1499 -4 -19 -10 -236 -13
-484 -15 -1054 -58 -2670 -91 -3390 -33 -729 -52 -878 -130 -1011 -39 -66 -54
-69 -296 -54 -227 13 -321 8 -386 -20 -58 -25 -77 -58 -71 -120 6 -62 38 -125
192 -385 189 -319 298 -546 344 -720 33 -127 36 -184 13 -350 -11 -82 -25
-214 -32 -292 l-12 -143 -1439 0 -1438 0 0 23 c0 12 -7 135 -15 272 -37 641
-49 1412 -26 1688 26 298 31 387 41 662 20 569 30 1625 30 3301 l0 1702 142
163 c78 90 179 207 225 259 247 280 621 975 1073 1995 102 230 109 245 114
245 1 0 168 -56 372 -124z m-10218 -3221 c-5 -401 -6 -1092 -2 -1535 13 -1346
18 -1208 -76 -2175 -65 -670 -77 -837 -85 -1160 -3 -148 -12 -549 -20 -890 -8
-341 -16 -754 -17 -917 l-2 -298 -74 0 -73 0 4 1033 4 1032 36 625 c68 1175
84 1646 68 1990 -16 324 -3 962 49 2485 11 319 22 612 26 652 l6 71 82 -91 83
-92 -9 -730z m8239 -1515 c-6 -2267 -18 -2980 -58 -3335 -37 -334 -24 -1287
27 -2022 l7 -93 -131 0 -130 0 -16 87 c-34 188 -47 317 -56 563 -24 656 -3
1514 50 2000 35 317 43 786 36 2065 -3 655 -10 1406 -15 1670 -6 264 -11 564
-12 667 l-2 188 149 171 c140 162 149 171 153 143 1 -16 1 -963 -2 -2104z
m-511 -670 c-6 -1415 -22 -2018 -62 -2395 -20 -191 -32 -1978 -15 -2194 6 -80
14 -155 17 -166 l5 -22 -3912 -7 c-2151 -3 -3914 -4 -3917 -1 -10 10 43 2301
59 2520 6 83 30 353 54 600 102 1040 111 1198 95 1605 -7 168 -10 351 -8 408
l3 103 90 38 c194 82 323 155 490 279 171 127 238 146 510 146 143 -1 225 -6
335 -23 521 -79 1115 -254 2240 -659 561 -202 614 -219 687 -227 323 -37 933
253 1678 796 282 206 613 470 890 709 55 48 143 118 195 157 122 89 224 186
407 385 l148 161 8 -509 c4 -280 6 -1047 3 -1704z m-8646 348 c75 -37 181 -52
310 -44 58 4 114 9 126 12 21 5 21 5 30 -363 20 -870 12 -1231 -47 -2218 -36
-599 -51 -1297 -42 -2032 l6 -493 -1147 0 -1146 0 5 23 c3 12 21 193 40 402
54 590 63 675 90 822 83 454 270 1051 545 1738 355 886 797 1761 1053 2084 45
57 103 105 117 98 3 -1 30 -14 60 -29z"/>
<path d="M24635 30799 c-519 -38 -1041 -144 -1395 -281 -752 -293 -1440 -885
-2135 -1838 -351 -481 -704 -1067 -1025 -1705 -155 -308 -207 -442 -269 -695
-177 -726 -208 -1862 -85 -3210 51 -568 97 -916 150 -1150 61 -265 123 -576
149 -749 37 -239 84 -517 185 -1096 139 -801 203 -1242 235 -1620 20 -241 35
-360 91 -725 109 -706 299 -1708 530 -2790 91 -428 160 -623 339 -967 271
-518 762 -1219 1284 -1833 31 -36 57 -67 58 -69 2 -2 5 -2 8 1 3 3 -29 48 -73
99 -620 739 -1159 1550 -1393 2094 -112 262 -139 369 -323 1280 -284 1410
-445 2376 -491 2940 -27 326 -89 774 -191 1370 -70 413 -203 1207 -242 1450
-17 105 -60 323 -96 485 -72 328 -93 458 -130 795 -85 773 -116 1310 -116
1975 0 772 46 1266 161 1725 69 272 131 421 340 818 690 1307 1320 2152 2080
2784 371 309 780 532 1211 662 329 100 725 168 1168 201 178 13 704 13 894 0
880 -63 1768 -272 2696 -634 149 -59 948 -402 1405 -603 314 -139 671 -318
820 -412 390 -245 629 -500 814 -868 88 -176 324 -790 436 -1133 178 -550 254
-1031 225 -1442 -5 -87 -33 -355 -60 -595 -27 -241 -74 -656 -104 -923 -121
-1061 -176 -1706 -176 -2055 0 -288 -30 -632 -81 -933 -18 -110 -35 -260 -44
-410 -16 -246 -19 -268 -54 -367 -21 -57 -173 -659 -187 -738 -3 -21 -8 -36
-11 -34 -4 4 137 764 173 929 10 46 19 170 25 338 9 281 19 379 49 500 44 179
55 316 75 889 8 239 22 524 30 635 60 795 168 1751 271 2416 25 156 28 202 28
430 0 265 -9 364 -55 600 -73 374 -164 652 -451 1375 -245 620 -299 724 -457
888 -226 234 -450 353 -1791 949 -272 121 -666 298 -875 393 -444 202 -528
238 -730 315 -919 352 -1848 481 -2688 374 -424 -54 -836 -172 -1147 -329 -58
-30 -130 -63 -160 -75 -180 -71 -498 -257 -705 -415 -504 -383 -1029 -990
-1522 -1760 -187 -292 -482 -794 -574 -976 -269 -536 -346 -1269 -248 -2354
26 -296 73 -674 163 -1315 124 -888 143 -1057 181 -1620 53 -799 154 -2527
255 -4375 51 -936 62 -1060 121 -1390 62 -345 188 -922 280 -1275 46 -180 48
-185 55 -177 3 2 -60 331 -140 728 -136 680 -218 1101 -213 1106 1 1 67 -152
146 -340 79 -188 200 -467 268 -620 67 -153 123 -283 123 -288 0 -6 8 -23 18
-37 10 -15 55 -105 100 -200 73 -154 108 -219 238 -446 54 -92 101 -206 144
-348 52 -167 65 -196 133 -291 109 -152 216 -401 257 -601 11 -54 34 -137 51
-185 117 -323 121 -336 127 -468 l5 -124 31 -16 c74 -38 148 -110 212 -205 74
-112 119 -151 249 -213 143 -69 247 -101 625 -192 335 -80 1667 -413 1868
-467 l93 -25 72 41 c130 74 336 164 1372 601 797 336 732 305 788 373 115 141
241 357 288 495 12 38 25 109 30 174 10 128 25 185 104 390 100 258 218 515
457 985 l230 455 24 163 c13 90 29 172 34 183 14 25 173 219 318 388 99 114
117 131 127 117 32 -43 84 9 185 189 38 68 64 99 155 181 61 55 210 197 332
318 123 120 223 214 223 209 0 -49 -258 -709 -460 -1178 -78 -181 -189 -440
-246 -575 -245 -575 -364 -813 -632 -1260 -201 -336 -530 -820 -764 -1124 -55
-70 -102 -135 -105 -145 -7 -23 19 9 196 244 532 705 957 1413 1225 2040 38
88 157 365 266 615 322 742 461 1094 573 1450 114 361 165 587 227 998 70 469
154 905 306 1592 104 470 221 948 269 1095 37 114 42 156 65 490 5 83 16 184
24 226 55 285 83 588 96 1029 15 552 48 899 247 2620 l97 835 0 280 c0 311 -9
402 -70 702 -73 362 -229 840 -475 1450 -242 602 -505 904 -1074 1233 -198
114 -534 271 -1160 540 -176 76 -441 190 -590 254 -1055 456 -2078 719 -3063
786 -176 12 -763 11 -927 -1z m3337 -3644 c62 -34 176 -76 180 -65 2 5 31 5
73 0 39 -5 132 -12 208 -16 75 -4 137 -11 137 -17 0 -5 -10 -80 -22 -166 -12
-91 -22 -212 -22 -291 -1 -116 2 -145 22 -205 33 -98 116 -257 218 -415 247
-384 361 -594 535 -989 33 -74 57 -136 55 -139 -3 -2 -101 14 -218 37 -607
116 -1004 168 -1363 178 -385 10 -1008 -22 -1315 -68 -203 -30 -412 -57 -540
-68 -166 -16 -643 -35 -672 -28 -18 5 -28 17 -37 49 -38 132 -150 306 -274
427 l-65 64 28 23 c36 31 56 81 71 184 14 100 6 329 -15 410 l-14 55 -1 -50
c-1 -27 -4 -87 -8 -133 -6 -83 -6 -83 -19 -47 -23 67 -85 114 -176 134 -182
40 -1260 178 -1423 182 -27 0 -61 4 -75 8 -22 6 -17 12 62 64 337 222 803 364
1373 419 183 17 689 16 915 -2 225 -18 748 -19 905 -2 296 33 469 66 697 134
l136 40 99 -40 c178 -73 283 -98 283 -69 0 8 -39 27 -97 46 -54 18 -125 46
-158 61 l-60 28 40 17 c111 46 291 143 380 204 55 38 103 69 106 70 4 0 26
-10 51 -24z m-6005 -1162 c-163 -283 -349 -728 -406 -970 -14 -55 -9 -53 -103
-69 l-37 -6 35 133 c20 74 49 174 66 224 41 122 163 405 255 591 70 142 78
154 107 159 99 18 121 21 125 19 2 -2 -17 -38 -42 -81z m1649 -337 c184 -37
464 -139 574 -208 l35 -22 -115 -8 c-63 -4 -227 -14 -365 -23 -288 -18 -505
-40 -555 -56 -76 -25 -154 -73 -223 -137 l-72 -68 -215 -18 c-118 -9 -284 -25
-369 -35 l-154 -17 59 53 c300 272 658 496 868 542 129 29 137 30 281 25 84
-2 173 -12 251 -28z m1275 -306 c107 -111 186 -219 242 -329 26 -52 47 -99 47
-103 0 -5 -30 -8 -67 -6 l-68 3 -25 50 c-96 196 -169 299 -276 388 l-75 62 63
6 c35 3 68 6 73 7 6 1 44 -34 86 -78z m-1180 -393 c142 -24 202 -59 353 -209
71 -70 131 -126 134 -124 2 3 -40 53 -95 113 l-98 108 64 -50 c178 -138 475
-422 615 -588 l49 -57 -7 -93 c-21 -271 -141 -729 -254 -971 -89 -190 -223
-336 -434 -476 -132 -88 -225 -124 -393 -154 -311 -55 -919 -60 -1253 -10
-112 16 -291 59 -304 72 -8 8 11 301 37 557 28 277 94 747 106 759 3 3 63 -15
134 -40 373 -130 763 -215 995 -217 130 -1 212 17 341 76 161 74 401 261 538
418 35 41 73 76 83 79 17 4 2 21 -78 90 -55 47 -171 155 -259 241 -88 86 -188
174 -223 197 -120 77 -352 142 -511 142 -160 0 -360 -86 -553 -237 -51 -40
-59 -43 -80 -33 -68 36 -72 61 -25 163 57 123 207 245 317 259 99 12 707 0
801 -15z m-901 9 c0 -2 -19 -16 -41 -31 -23 -15 -62 -45 -86 -68 -41 -37 -44
-39 -38 -16 4 17 1 30 -9 39 -21 16 -63 8 -393 -76 -254 -65 -323 -75 -323
-51 0 10 44 84 70 119 10 13 501 68 720 81 30 2 65 4 78 5 12 1 22 0 22 -2z
m4950 -71 c145 -53 270 -125 379 -218 52 -44 132 -132 150 -165 5 -9 13 -14
16 -10 10 10 -74 116 -143 180 -77 71 -178 138 -284 188 -64 30 -75 38 -48 34
19 -2 151 -15 292 -29 505 -49 672 -104 919 -301 121 -96 143 -180 143 -544 0
-368 -49 -767 -119 -976 -68 -203 -188 -404 -330 -550 -62 -64 -78 -74 -140
-93 -163 -50 -420 -75 -800 -75 -321 -1 -465 12 -727 64 -182 37 -319 80 -423
133 -154 79 -306 262 -454 547 -81 156 -129 293 -165 470 -71 350 -74 706 -8
900 66 192 168 286 391 360 104 35 282 74 381 84 l65 6 -109 -55 c-59 -31
-106 -58 -103 -61 3 -3 37 11 76 30 215 109 258 116 686 111 277 -3 281 -3
355 -30z m-4754 -307 c-27 -55 -31 -72 -31 -148 0 -76 4 -93 32 -151 39 -79
102 -140 181 -177 48 -22 71 -27 142 -27 71 0 94 5 142 27 69 32 145 106 176
169 47 96 47 221 1 311 -11 21 -17 38 -14 38 17 0 156 -72 196 -101 53 -39
229 -224 229 -241 0 -6 -19 -29 -42 -50 -107 -98 -379 -186 -609 -195 -146 -6
-244 3 -579 58 -263 42 -316 54 -325 70 -16 25 146 194 320 334 48 39 201 145
210 145 1 0 -12 -28 -29 -62z m439 -18 c11 -13 15 -27 11 -44 -13 -51 -86 -40
-86 12 0 51 42 69 75 32z m2135 -16 c79 -18 141 -58 166 -106 12 -24 19 -75
25 -188 17 -325 106 -796 198 -1050 67 -184 257 -498 386 -638 112 -121 247
-213 365 -246 105 -30 569 -89 915 -117 83 -7 247 -12 365 -13 195 0 229 2
365 28 399 75 539 158 657 391 98 192 196 459 259 704 43 167 65 307 94 591
18 175 32 268 44 295 20 45 118 142 131 129 12 -14 78 -256 108 -399 l27 -130
0 -545 c-1 -712 -10 -813 -145 -1490 -195 -979 -365 -1652 -493 -1957 -79
-187 -319 -598 -473 -810 -215 -295 -335 -418 -688 -704 -71 -57 -233 -192
-360 -299 -612 -516 -967 -768 -1262 -894 l-82 -34 10 34 c31 112 -116 376
-221 397 -19 4 -129 4 -245 1 -235 -8 -327 1 -496 43 -84 22 -129 27 -225 28
-108 0 -130 -3 -220 -32 -141 -45 -221 -57 -345 -50 -164 9 -256 54 -292 146
-39 102 22 309 154 518 37 59 39 66 28 94 -17 41 -110 124 -383 346 -477 387
-846 725 -1075 986 -459 523 -662 957 -751 1612 -35 255 -42 367 -48 769 l-6
389 27 -7 c51 -13 220 -35 376 -50 594 -58 1140 -44 1396 35 109 34 322 178
454 309 l87 85 -60 -105 c-33 -58 -100 -170 -150 -250 -50 -80 -103 -168 -118
-195 -80 -144 -79 -333 4 -489 41 -79 154 -193 238 -240 115 -64 201 -89 309
-90 91 -1 99 1 195 43 132 57 176 61 296 26 64 -19 115 -28 163 -27 62 0 78 5
163 47 103 51 94 51 228 15 58 -16 113 -22 200 -23 110 -2 124 0 175 24 75 35
111 67 145 131 38 69 47 193 20 264 -24 63 -100 136 -187 179 -96 47 -151 53
-255 26 -45 -12 -99 -21 -120 -21 -65 0 -133 40 -204 119 -75 84 -114 102
-181 82 -51 -16 -126 -89 -195 -191 -67 -100 -78 -109 -103 -84 -11 10 -67
111 -126 224 -118 228 -126 257 -104 377 7 37 61 217 120 398 118 360 186 591
250 843 63 254 128 558 142 665 l12 97 124 0 c76 0 149 -6 192 -16z m-396 -31
c-44 -258 -141 -654 -309 -1268 -165 -605 -187 -700 -181 -769 6 -55 61 -288
105 -438 11 -38 15 -68 10 -68 -17 0 -124 120 -162 182 -67 111 -78 192 -52
358 3 21 -5 8 -20 -35 -40 -108 -43 -184 -11 -276 48 -140 38 -158 -107 -183
-97 -17 -134 -37 -168 -92 -29 -48 -27 -74 10 -133 35 -55 160 -177 234 -230
40 -29 58 -51 43 -51 -11 0 -137 76 -182 110 -141 106 -201 279 -160 462 17
75 69 196 119 275 14 23 23 43 20 47 -3 3 51 62 121 131 l127 126 60 197 c185
609 368 1294 409 1537 12 72 24 136 26 143 2 7 19 12 39 12 l36 0 -7 -37z
m-3855 -424 c29 -284 66 -557 101 -729 24 -124 29 -178 35 -370 39 -1440 133
-2569 246 -2953 38 -129 248 -606 422 -959 46 -93 82 -168 81 -168 -2 0 -52
78 -112 173 -139 219 -259 428 -328 570 -53 112 -174 449 -201 562 -8 33 -32
202 -54 375 -66 528 -138 1013 -321 2160 -20 126 -23 180 -23 415 1 291 13
442 66 805 44 307 52 352 60 338 4 -7 16 -105 28 -219z m8702 -1629 c20 -137
-7 -472 -58 -700 -40 -182 -68 -238 -138 -275 l-37 -20 -19 24 c-29 35 -24 80
32 282 112 407 145 575 156 784 l7 130 23 -75 c13 -41 28 -109 34 -150z m-341
-1089 c0 -38 -63 -267 -82 -299 -26 -42 -61 -51 -96 -25 -70 52 -11 200 127
316 38 32 51 34 51 8z m1537 -1823 c-3 -8 -6 -5 -6 6 -1 11 2 17 5 13 3 -3 4
-12 1 -19z m-2763 -903 c-83 -439 -145 -921 -165 -1285 -12 -209 -5 -1133 9
-1290 4 -44 10 145 15 460 4 294 10 567 14 607 l6 72 70 -92 c160 -211 310
-374 418 -455 55 -41 199 -114 252 -128 24 -5 28 -11 23 -29 -15 -61 -154
-367 -271 -600 -300 -595 -607 -1049 -996 -1471 -565 -613 -1170 -969 -1844
-1086 -176 -30 -596 -33 -805 -5 -935 126 -1710 398 -2375 835 -153 100 -315
219 -315 230 0 5 26 16 58 26 146 45 382 162 508 252 116 82 115 143 -11 524
-82 249 -105 346 -105 443 0 89 19 137 70 181 40 33 67 40 143 34 83 -7 175
-47 414 -180 384 -214 578 -302 784 -357 231 -62 405 -65 502 -8 59 35 82 82
81 167 -2 129 -65 239 -243 426 -220 229 -284 364 -211 447 47 54 145 73 290
57 229 -26 274 -28 363 -20 136 14 238 44 372 110 151 75 251 150 455 342 153
144 166 154 244 184 278 107 649 351 1081 710 147 121 637 536 645 544 3 3 54
45 113 94 124 101 271 246 371 364 38 45 70 81 71 80 2 -2 -13 -84 -31 -183z"/>
<path d="M26960 26005 c-300 -38 -798 -165 -890 -227 -69 -48 -75 -64 -75
-217 0 -149 8 -180 52 -200 65 -30 163 -5 388 98 93 43 191 86 218 95 110 37
562 97 732 97 155 1 404 -48 775 -150 262 -72 392 -142 626 -337 42 -35 79
-62 82 -59 3 3 -33 83 -81 178 -105 210 -187 312 -321 401 -205 137 -521 252
-841 307 -158 28 -498 35 -665 14z"/>
<path d="M27169 24719 c-79 -11 -167 -42 -284 -99 -181 -89 -237 -138 -441
-386 -44 -52 -79 -101 -79 -107 0 -7 14 -13 30 -15 26 -3 38 -16 85 -90 74
-118 157 -212 229 -260 103 -68 277 -115 476 -126 l100 -6 -155 53 c-278 97
-380 146 -450 216 -48 48 -96 126 -82 134 4 2 108 -20 232 -49 453 -107 497
-115 700 -121 188 -6 307 2 490 33 101 17 335 74 385 94 l30 12 -40 20 c-40
20 -105 75 -105 89 0 4 18 10 40 14 39 7 53 26 29 41 -6 3 -71 82 -144 173
-73 92 -151 183 -173 202 -101 86 -244 146 -412 174 -102 16 -363 19 -461 4z
m-151 -195 c-17 -38 -22 -68 -23 -134 0 -77 3 -92 32 -151 39 -79 102 -140
181 -177 48 -22 71 -27 142 -27 71 0 94 5 142 27 146 68 233 226 209 379 -5
31 -17 71 -26 88 -8 17 -13 31 -11 31 15 0 121 -53 172 -85 33 -21 109 -87
171 -148 l112 -110 -30 -44 c-58 -83 -185 -160 -334 -199 -56 -15 -105 -19
-245 -18 -177 0 -260 10 -460 55 -138 31 -490 133 -490 142 0 33 161 213 268
301 64 51 199 132 208 123 3 -2 -6 -26 -18 -53z m447 -4 c11 -13 15 -27 11
-44 -13 -51 -86 -40 -86 12 0 51 42 69 75 32z"/>
<path d="M26306 22313 c48 -140 66 -234 67 -343 0 -79 -5 -106 -27 -165 -37
-97 -96 -194 -162 -265 -72 -77 -46 -79 32 -2 74 72 129 155 167 251 27 67 30
88 30 176 0 93 -15 178 -45 260 -22 61 -81 185 -89 185 -4 0 8 -44 27 -97z"/>
<path d="M26635 21800 c100 -200 212 -400 290 -520 57 -86 105 -144 105 -126
0 8 -450 777 -463 791 -5 6 26 -60 68 -145z"/>
<path d="M24692 20625 c-77 -21 -195 -72 -434 -186 -117 -56 -249 -117 -293
-136 -44 -19 -96 -43 -115 -53 -19 -10 -114 -53 -210 -95 -96 -42 -177 -78
-178 -80 -8 -8 31 -232 54 -311 36 -126 57 -159 168 -269 254 -252 761 -600
982 -674 46 -15 100 -22 220 -26 283 -11 394 -40 521 -137 145 -109 228 -138
424 -145 81 -4 139 -2 142 4 3 5 -35 38 -86 74 -242 170 -403 393 -368 510 40
134 330 320 861 552 107 47 224 99 260 116 36 17 78 31 93 31 41 0 90 -23 136
-65 97 -88 231 -37 231 87 0 58 -28 132 -78 209 -172 261 -334 306 -358 98
l-7 -59 -151 78 c-83 43 -209 117 -281 164 -187 122 -427 265 -501 300 -56 26
-73 30 -132 26 -58 -3 -86 -12 -202 -68 -170 -82 -209 -85 -340 -26 -208 92
-269 106 -358 81z m1078 -83 c209 -105 422 -240 692 -440 147 -109 270 -201
274 -204 8 -9 -312 -169 -448 -224 -190 -76 -400 -128 -633 -156 -166 -20
-703 -17 -874 5 l-135 17 -132 70 c-164 86 -276 153 -332 198 -76 60 -47 103
97 145 46 13 111 20 216 24 131 4 177 1 365 -26 448 -63 612 -72 845 -46 191
21 254 19 427 -17 134 -27 174 -31 320 -32 91 -1 170 2 174 7 37 37 -506 421
-781 553 -190 91 -301 96 -515 25 -178 -60 -208 -58 -465 29 -83 28 -136 40
-176 40 -66 0 -185 -33 -343 -94 -61 -24 -120 -46 -131 -50 -11 -4 59 33 155
81 96 49 221 104 278 123 96 32 107 33 157 23 29 -6 104 -34 167 -62 210 -93
245 -92 446 3 75 36 148 67 162 69 43 8 72 -1 190 -61z m-2135 -449 c-64 -35
-140 -65 -125 -49 15 15 126 65 145 65 6 0 -3 -7 -20 -16z"/>
<path d="M21334 14438 c3 -9 74 -106 159 -215 358 -462 408 -533 487 -698 48
-99 68 -130 110 -168 66 -60 85 -61 31 -2 -41 45 -80 117 -125 234 -47 123
-164 292 -371 541 -118 142 -299 334 -291 308z"/>
</g>
</svg>
